<?xml version="1.0" encoding="utf-8"?>
<!-- Generator: Adobe Illustrator 24.0.0, SVG Export Plug-In . SVG Version: 6.00 Build 0)  -->
<svg version="1.1" id="Capa_1" xmlns="http://www.w3.org/2000/svg" xmlns:xlink="http://www.w3.org/1999/xlink" x="0px" y="0px"
	 viewBox="0 0 37 22" style="enable-background:new 0 0 37 22;" xml:space="preserve">
<style type="text/css">
	.st0{fill:none;}
	.st1{fill:#2F2F2F;}
</style>
<path class="st0" d="M18.5,2c-2.4,0-4.4,1.9-4.4,4.3c0,2.4,2,4.4,4.4,4.4c2.4,0,4.4-1.9,4.4-4.3C22.9,3.9,20.9,2,18.5,2z"/>
<path class="st0" d="M28,8.9c-1.5,0-2.8,1.2-2.8,2.8c0,1.5,1.3,2.8,2.8,2.8s2.8-1.2,2.8-2.8C30.8,10.1,29.5,8.9,28,8.9z"/>
<path class="st1" d="M32.7,16.4c-0.7-0.7-1.6-1.2-2.5-1.6c1-0.7,1.7-1.8,1.7-3.1c0-2.1-1.7-3.8-3.8-3.8s-3.8,1.7-3.8,3.8
	c0,0.3,0,0.5,0.1,0.7c-0.7-0.5-1.5-0.9-2.3-1.1c1.6-1.1,2.6-2.9,2.6-4.9c0-3.3-2.7-6-6-6s-6,2.7-6,6c0,2,1,3.8,2.6,4.9
	c-0.8,0.3-1.6,0.7-2.3,1.2c0-0.2,0.1-0.5,0.1-0.7c0-2.1-1.7-3.8-3.8-3.8s-3.8,1.7-3.8,3.8c0,1.3,0.7,2.4,1.7,3.1
	c-0.9,0.3-1.8,0.8-2.5,1.6c-1.3,1.2-1.9,2.9-1.9,4.6h1c0-3.1,2.5-5.5,5.6-5.5c0.2,0,0.4,0,0.7,0c0,0-0.3,0.5-0.5,0.8
	c-0.7,1.4-1.1,3-1.1,4.7h1.6c0-1.3,0.3-2.5,0.8-3.5c0.1-0.3,0.3-0.7,0.5-1c1.5-2.5,4.3-4.2,7.5-4.2c2.6,0,4.9,1.1,6.5,2.8
	c0.2,0.3,0.5,0.5,0.7,0.8c1,1.4,1.6,3.2,1.6,5h1.6c0-2-0.6-3.9-1.6-5.5c0.2,0,0.4,0,0.7,0c3.1,0,5.6,2.5,5.6,5.5h1
	C34.6,19.2,33.9,17.6,32.7,16.4z M9,14.4c-1.5,0-2.8-1.2-2.8-2.8c0-1.5,1.3-2.8,2.8-2.8s2.8,1.2,2.8,2.8C11.8,13.2,10.6,14.4,9,14.4
	z M18.5,10.7c-2.4,0-4.4-2-4.4-4.4c0-2.4,2-4.3,4.4-4.3c2.4,0,4.4,2,4.4,4.4C22.9,8.7,20.9,10.7,18.5,10.7z M28,14.4
	c-1.5,0-2.8-1.2-2.8-2.8c0-1.5,1.3-2.8,2.8-2.8s2.8,1.2,2.8,2.8C30.8,13.2,29.5,14.4,28,14.4z"/>
</svg>
