<?xml version="1.0" encoding="utf-8"?>
<!-- Generator: Adobe Illustrator 24.0.0, SVG Export Plug-In . SVG Version: 6.00 Build 0)  -->
<svg version="1.1" xmlns="http://www.w3.org/2000/svg" xmlns:xlink="http://www.w3.org/1999/xlink" x="0px" y="0px"
	 viewBox="0 0 7.8 7.2" style="enable-background:new 0 0 7.8 7.2;" xml:space="preserve">
<style type="text/css">
	.st0{display:none;}
	.st1{display:inline;fill:none;}
	.st2{display:inline;fill:#2F2F2F;}
	.st3{display:inline;fill:#8FDC52;}
	.st4{fill:#8FDC52;}
</style>
<g id="Capa_1" class="st0">
	<path class="st1" d="M18.5,2c-2.4,0-4.4,1.9-4.4,4.3c0,2.4,2,4.4,4.4,4.4c2.4,0,4.4-1.9,4.4-4.3C22.9,3.9,20.9,2,18.5,2z"/>
	<path class="st1" d="M28,8.9c-1.5,0-2.8,1.2-2.8,2.8c0,1.5,1.3,2.8,2.8,2.8s2.8-1.2,2.8-2.8C30.8,10.1,29.5,8.9,28,8.9z"/>
	<path class="st2" d="M32.7,16.4c-0.7-0.7-1.6-1.2-2.5-1.6c1-0.7,1.7-1.8,1.7-3.1c0-2.1-1.7-3.8-3.8-3.8s-3.8,1.7-3.8,3.8
		c0,0.3,0,0.5,0.1,0.7c-0.7-0.5-1.5-0.9-2.3-1.1c1.6-1.1,2.6-2.9,2.6-4.9c0-3.3-2.7-6-6-6s-6,2.7-6,6c0,2,1,3.8,2.6,4.9
		c-0.8,0.3-1.6,0.7-2.3,1.2c0-0.2,0.1-0.5,0.1-0.7c0-2.1-1.7-3.8-3.8-3.8s-3.8,1.7-3.8,3.8c0,1.3,0.7,2.4,1.7,3.1
		c-0.9,0.3-1.8,0.8-2.5,1.6c-1.3,1.2-1.9,2.9-1.9,4.6h1c0-3.1,2.5-5.5,5.6-5.5c0.2,0,0.4,0,0.7,0c0,0-0.3,0.5-0.5,0.8
		c-0.7,1.4-1.1,3-1.1,4.7h1.6c0-1.3,0.3-2.5,0.8-3.5c0.1-0.3,0.3-0.7,0.5-1c1.5-2.5,4.3-4.2,7.5-4.2c2.6,0,4.9,1.1,6.5,2.8
		c0.2,0.3,0.5,0.5,0.7,0.8c1,1.4,1.6,3.2,1.6,5h1.6c0-2-0.6-3.9-1.6-5.5c0.2,0,0.4,0,0.7,0c3.1,0,5.6,2.5,5.6,5.5h1
		C34.6,19.2,33.9,17.6,32.7,16.4z M9,14.4c-1.5,0-2.8-1.2-2.8-2.8c0-1.5,1.3-2.8,2.8-2.8s2.8,1.2,2.8,2.8
		C11.8,13.2,10.6,14.4,9,14.4z M18.5,10.7c-2.4,0-4.4-2-4.4-4.4c0-2.4,2-4.3,4.4-4.3c2.4,0,4.4,2,4.4,4.4
		C22.9,8.7,20.9,10.7,18.5,10.7z M28,14.4c-1.5,0-2.8-1.2-2.8-2.8c0-1.5,1.3-2.8,2.8-2.8s2.8,1.2,2.8,2.8
		C30.8,13.2,29.5,14.4,28,14.4z"/>
</g>
<g id="Capa_2" class="st0">
	<path class="st2" d="M11.9,11c-2.6,0-4.6-1.9-4.6-4.3c0-2.4,2.1-4.3,4.6-4.3c2.6,0,4.6,1.9,4.6,4.3S14.4,11,11.9,11z M19.6,14
		c-1.2-1.1-2.6-1.9-4.2-2.4c1.7-1.1,2.8-2.8,2.8-4.8c0-3.3-2.9-5.9-6.4-5.9c-3.5,0-6.4,2.6-6.4,5.9c0,2,1.1,3.8,2.8,4.8
		c-1.6,0.5-3,1.3-4.2,2.5c-2.1,1.9-3.2,4.5-3.2,7.2h1.7c0-4.7,4.2-8.6,9.3-8.6c5.1,0,9.3,3.8,9.3,8.6h1.7
		C22.9,18.5,21.7,15.9,19.6,14z"/>
</g>
<g id="Capa_3" class="st0">
	<path class="st3" d="M20.8,0.7H7.3c-0.8,0-1.5,0.7-1.5,1.5c0,0.8,0.7,1.5,1.5,1.5h9.9L1.7,19.2l2.1,2.1L19.3,5.8v9.9
		c0,0.8,0.7,1.5,1.5,1.5c0.8,0,1.5-0.7,1.5-1.5V2.2C22.3,1.4,21.6,0.7,20.8,0.7z"/>
</g>
<g id="Capa_4">
	<circle class="st4" cx="3.9" cy="3.7" r="2.5"/>
</g>
</svg>
