<?xml version="1.0" encoding="utf-8"?>
<!-- Generator: Adobe Illustrator 24.0.0, SVG Export Plug-In . SVG Version: 6.00 Build 0)  -->
<svg version="1.1" xmlns="http://www.w3.org/2000/svg" xmlns:xlink="http://www.w3.org/1999/xlink" x="0px" y="0px"
	 viewBox="0 0 29.4 27.2" style="enable-background:new 0 0 29.4 27.2;" xml:space="preserve">
<style type="text/css">
	.st0{display:none;}
	.st1{display:inline;fill:none;}
	.st2{display:inline;fill:#2F2F2F;}
	.st3{display:inline;}
	.st4{fill:#8FDC52;}
	.st5{display:inline;fill:#8FDC52;}
</style>
<g id="Capa_1" class="st0">
	<g id="Capa_1_1_">
		<path class="st1" d="M21,6.4c-2.4,0-4.4,1.9-4.4,4.3s2,4.4,4.4,4.4s4.4-1.9,4.4-4.3S23.4,6.4,21,6.4z"/>
		<path class="st1" d="M30.5,13.4c-1.5,0-2.8,1.2-2.8,2.8c0,1.5,1.3,2.8,2.8,2.8s2.8-1.2,2.8-2.8S32,13.4,30.5,13.4z"/>
		<path class="st2" d="M35.2,20.8c-0.7-0.7-1.6-1.2-2.5-1.6c1-0.7,1.7-1.8,1.7-3.1c0-2.1-1.7-3.8-3.8-3.8s-3.8,1.7-3.8,3.8
			c0,0.3,0,0.5,0.1,0.7c-0.7-0.5-1.5-0.9-2.3-1.1c1.6-1.1,2.6-2.9,2.6-4.9c0-3.3-2.7-6-6-6s-6,2.7-6,6c0,2,1,3.8,2.6,4.9
			c-0.8,0.3-1.6,0.7-2.3,1.2c0-0.2,0.1-0.5,0.1-0.7c0-2.1-1.7-3.8-3.8-3.8S8,14.1,8,16.2c0,1.3,0.7,2.4,1.7,3.1
			c-0.9,0.3-1.8,0.8-2.5,1.6c-1.3,1.2-1.9,2.9-1.9,4.6h1c0-3.1,2.5-5.5,5.6-5.5c0.2,0,0.4,0,0.7,0c0,0-0.3,0.5-0.5,0.8
			c-0.7,1.4-1.1,3-1.1,4.7h1.6c0-1.3,0.3-2.5,0.8-3.5c0.1-0.3,0.3-0.7,0.5-1c1.5-2.5,4.3-4.2,7.5-4.2c2.6,0,4.9,1.1,6.5,2.8
			c0.2,0.3,0.5,0.5,0.7,0.8c1,1.4,1.6,3.2,1.6,5h1.6c0-2-0.6-3.9-1.6-5.5c0.2,0,0.4,0,0.7,0c3.1,0,5.6,2.5,5.6,5.5h1
			C37.1,23.7,36.4,22.1,35.2,20.8z M11.5,18.9c-1.5,0-2.8-1.2-2.8-2.8c0-1.5,1.3-2.8,2.8-2.8s2.8,1.2,2.8,2.8S13.1,18.9,11.5,18.9z
			 M21,15.2c-2.4,0-4.4-2-4.4-4.4s2-4.3,4.4-4.3s4.4,2,4.4,4.4C25.4,13.2,23.4,15.2,21,15.2z M30.5,18.9c-1.5,0-2.8-1.2-2.8-2.8
			c0-1.5,1.3-2.8,2.8-2.8s2.8,1.2,2.8,2.8S32,18.9,30.5,18.9z"/>
	</g>
	<g id="Capa_2_1_">
		<path class="st2" d="M14.4,15.5c-2.6,0-4.6-1.9-4.6-4.3s2.1-4.3,4.6-4.3c2.6,0,4.6,1.9,4.6,4.3S16.9,15.5,14.4,15.5z M22.2,18.5
			c-1.2-1.1-2.6-1.9-4.2-2.4c1.7-1.1,2.8-2.8,2.8-4.8c0-3.3-2.9-5.9-6.4-5.9C10.9,5.3,8,7.9,8,11.2c0,2,1.1,3.8,2.8,4.8
			c-1.6,0.5-3,1.3-4.2,2.5c-2.1,1.9-3.2,4.5-3.2,7.2h1.7c0-4.7,4.2-8.6,9.3-8.6s9.3,3.8,9.3,8.6h1.7C25.4,23,24.2,20.4,22.2,18.5z"
			/>
	</g>
	<g id="Capa_3" class="st3">
		<path class="st4" d="M28,12.1l-9.5-9.5C17.9,2,17,2,16.4,2.6s-0.6,1.5,0,2.1l7,7H1.5v3h21.8l-7,7c-0.6,0.6-0.6,1.5,0,2.1
			s1.5,0.6,2.1,0l9.5-9.5C28.6,13.7,28.6,12.7,28,12.1z"/>
	</g>
	<g id="Capa_4">
		<circle class="st5" cx="6.4" cy="8.2" r="2.5"/>
	</g>
</g>
<g id="Capa_2">
	<g>
		<path class="st4" d="M21,2.8c-0.2-1-1.1-1.8-2.2-1.8c-0.2,0-0.5,0.2-0.5,0.5s0.2,0.5,0.5,0.5c0.7,0,1.4,0.6,1.4,1.4
			s-0.6,1.4-1.4,1.4c-0.2,0-0.5,0.2-0.5,0.5s0.2,0.5,0.5,0.5c1.1,0,2-0.8,2.2-1.8h5.9v4.1H2.5V3.7h6.3h1.4c0.2,0,0.5-0.2,0.5-0.5
			s-0.2-0.5-0.5-0.5H9.4c0.2-0.5,0.7-0.9,1.3-0.9c0.7,0,1.4,0.6,1.4,1.4s-0.6,1.4-1.4,1.4c-0.2,0-0.5,0.2-0.5,0.5s0.2,0.5,0.5,0.5
			c1.2,0,2.3-1,2.3-2.3S11.9,1,10.6,1c-1.1,0-2,0.8-2.2,1.8H1.6v5.9v18h26.1v-18V2.8H21z M26.9,25.8H2.5V8.7h24.3V25.8z"/>
		<path class="st4" d="M13.3,1.9c0.7,0,1.4,0.6,1.4,1.4s-0.6,1.4-1.4,1.4c-0.2,0-0.5,0.2-0.5,0.5s0.2,0.5,0.5,0.5
			c1.2,0,2.3-1,2.3-2.3S14.6,1,13.3,1c-0.2,0-0.5,0.2-0.5,0.5S13.1,1.9,13.3,1.9z"/>
		<path class="st4" d="M16.1,1.9c0.7,0,1.4,0.6,1.4,1.4s-0.6,1.4-1.4,1.4c-0.2,0-0.5,0.2-0.5,0.5s0.2,0.5,0.5,0.5
			c1.2,0,2.3-1,2.3-2.3S17.3,1,16.1,1c-0.2,0-0.5,0.2-0.5,0.5S15.8,1.9,16.1,1.9z"/>
		<circle class="st4" cx="11.5" cy="11.9" r="0.5"/>
		<circle class="st4" cx="14.7" cy="11.9" r="0.5"/>
		<circle class="st4" cx="17.9" cy="11.9" r="0.5"/>
		<circle class="st4" cx="21" cy="11.9" r="0.5"/>
		<circle class="st4" cx="24.2" cy="11.9" r="0.5"/>
		<circle class="st4" cx="5.2" cy="15.5" r="0.5"/>
		<circle class="st4" cx="8.4" cy="15.5" r="0.5"/>
		<circle class="st4" cx="11.5" cy="15.5" r="0.5"/>
		<circle class="st4" cx="14.7" cy="15.5" r="0.5"/>
		<circle class="st4" cx="17.9" cy="15.5" r="0.5"/>
		<circle class="st4" cx="21" cy="15.5" r="0.5"/>
		<circle class="st4" cx="24.2" cy="15.5" r="0.5"/>
		<circle class="st4" cx="5.2" cy="18.6" r="0.5"/>
		<circle class="st4" cx="8.4" cy="18.6" r="0.5"/>
		<circle class="st4" cx="11.5" cy="18.6" r="0.5"/>
		<circle class="st4" cx="14.7" cy="18.6" r="0.5"/>
		<circle class="st4" cx="17.9" cy="18.6" r="0.5"/>
		<circle class="st4" cx="21" cy="18.6" r="0.5"/>
		<circle class="st4" cx="24.2" cy="18.6" r="0.5"/>
		<circle class="st4" cx="5.2" cy="22.2" r="0.5"/>
		<circle class="st4" cx="8.4" cy="22.2" r="0.5"/>
		<circle class="st4" cx="11.5" cy="22.2" r="0.5"/>
		<circle class="st4" cx="14.7" cy="22.2" r="0.5"/>
		<circle class="st4" cx="17.9" cy="22.2" r="0.5"/>
	</g>
</g>
</svg>
