<svg width="50" height="49" viewBox="0 0 50 49" fill="none" xmlns="http://www.w3.org/2000/svg">
<path d="M24.6398 47.4788C37.2652 47.4788 47.5002 37.3353 47.5002 24.8227C47.5002 12.31 37.2652 2.1665 24.6398 2.1665C12.0143 2.1665 1.7793 12.31 1.7793 24.8227C1.7793 37.3353 12.0143 47.4788 24.6398 47.4788Z" fill="#54BA5F"/>
<path d="M33.8141 35.5976C33.5466 35.5976 33.2908 35.5169 33.0466 35.3786C24.035 30.02 13.3606 33.1084 13.2443 33.1545C12.4536 33.3965 11.6048 32.9356 11.3606 32.1519C11.1164 31.3683 11.5815 30.527 12.3722 30.285C12.8606 30.1468 24.4187 26.7357 34.5699 32.7973C35.2792 33.2352 35.5001 34.1225 35.0931 34.8255C34.8257 35.3556 34.3373 35.5976 33.8141 35.5976Z" fill="white"/>
<path d="M36.4068 29.513C36.1045 29.513 35.8022 29.4323 35.5347 29.2709C24.2324 22.829 12.8138 26.5628 12.7091 26.6204C11.7789 26.9431 10.7673 26.4591 10.4417 25.5372C10.1161 24.6152 10.6045 23.6127 11.5347 23.29C12.058 23.1056 24.5929 18.9915 37.2905 26.2171C38.1394 26.7011 38.4417 27.7843 37.9417 28.6256C37.6394 29.1788 37.0347 29.513 36.4068 29.513Z" fill="white"/>
<path d="M39.2207 22.5524C38.8603 22.5524 38.5347 22.4718 38.2091 22.3104C25.151 15.5113 11.7789 19.5793 11.6394 19.6254C10.4882 19.9826 9.26726 19.3603 8.90679 18.2194C8.54633 17.0786 9.17424 15.8685 10.3254 15.5113C10.9533 15.3269 25.5928 10.8786 40.2324 18.4845C41.3021 19.0492 41.7091 20.3514 41.1626 21.4116C40.7789 22.1491 40.0114 22.5524 39.2207 22.5524Z" fill="white"/>
</svg>
