<?xml version="1.0" encoding="utf-8"?>
<!-- Generator: Adobe Illustrator 24.0.3, SVG Export Plug-In . SVG Version: 6.00 Build 0)  -->
<svg version="1.1" id="Capa_1" xmlns="http://www.w3.org/2000/svg" xmlns:xlink="http://www.w3.org/1999/xlink" x="0px" y="0px"
	 viewBox="0 0 215 64" style="enable-background:new 0 0 215 64;" xml:space="preserve">
<style type="text/css">
	.st0{fill:#53B95F;}
	.st1{fill:#FFFFFF;}
</style>
<g>
	<circle class="st0" cx="33.3" cy="32.1" r="31.9"/>
	<path class="st0" d="M86,17.3c1,0,5.2-0.3,10.4,3.6c0.2,0.2,0.3,0.5,0.1,0.7L94,25.1c-0.2,0.2-0.5,0.3-0.8,0.1
		c-0.5-0.4-1.2-0.9-2.2-1.4c-1.5-0.8-3.4-1.4-5.1-1.4s-4.4,0.6-4.4,3.2c0,2.1,1.9,2.9,7.7,4.4c3.8,1,8.2,2.8,8.2,8.6
		c0,5.3-4.4,8.7-10.6,8.7c-3.7,0-8.8-1.4-12-4.6c-0.2-0.2-0.2-0.5,0-0.7l2.8-3.3c0.2-0.2,0.6-0.3,0.8,0c1.1,1,4.2,3.5,8.4,3.5
		c5,0,4.8-3,4.8-3.5c0-1-0.7-2.3-3.2-3c-2.5-0.7-8.7-1.9-11.1-4.6c-1.4-1.7-1.6-3.6-1.6-5C75.9,22.8,78,17.3,86,17.3z"/>
	<path class="st0" d="M112,24.2c-4.5,0-6.9,3.3-6.9,3.3v-2.3c0-0.3-0.2-0.5-0.5-0.5H100c-0.3,0-0.5,0.2-0.5,0.5v27.7
		c0,0.3,0.2,0.5,0.5,0.5h4.6c0.3,0,0.5-0.2,0.5-0.5v-8.6c0,0,2.3,3,7.1,3c3.9,0,10.1-3.1,10.1-11.5C122.4,27.5,116.5,24.2,112,24.2z
		 M110.8,42.4c-3.1,0-5.8-2.7-5.8-6.6c0-2.4,1.5-6.5,5.7-6.5s5.9,3.4,5.9,6.5C116.6,38.9,114.9,42.4,110.8,42.4z"/>
	<path class="st0" d="M135.7,24.2c-7.3,0-11.8,6-11.8,11.6c0,6.2,4.8,11.6,11.8,11.6c7,0,11.8-5.6,11.8-11.6
		C147.6,29.8,143,24.2,135.7,24.2z M135.8,42.4c-3,0-6.2-2.5-6.2-6.6s2.9-6.6,6.2-6.6c2.5,0,6.1,2.1,6.1,6.6S138.7,42.4,135.8,42.4z
		"/>
	<path class="st0" d="M162.1,29.1v-3.9c0-0.3-0.2-0.5-0.5-0.5h-5.3v-5.3c0-0.3-0.2-0.5-0.5-0.5h-4.5c-0.3,0-0.5,0.2-0.5,0.5v5.3
		h-2.2c-0.3,0-0.5,0.2-0.5,0.5v3.9c0,0.3,0.2,0.5,0.5,0.5h2.2c0,0,0,8.6,0,11.1s1.1,6.5,6.1,6.5c2.3,0,4.2-0.8,5-1.1
		c0.2-0.1,0.3-0.3,0.3-0.5v-3.9c0-0.3-0.4-0.6-0.7-0.4c-0.5,0.4-1.4,0.7-2.6,0.7c-2.4,0-2.5-1.6-2.5-2.8s0-9.7,0-9.7h5.3
		C161.9,29.6,162.1,29.4,162.1,29.1z"/>
	<circle class="st0" cx="167.3" cy="18.4" r="3.5"/>
	<path class="st0" d="M168.7,46.9h-2.8c-0.8,0-1.4-0.6-1.4-1.4V26.1c0-0.8,0.6-1.4,1.4-1.4h2.8c0.8,0,1.4,0.6,1.4,1.4v19.4
		C170.1,46.2,169.5,46.9,168.7,46.9z"/>
	<path class="st0" d="M175.1,29.6h-2.2c-0.3,0-0.5-0.2-0.5-0.5v-3.9c0-0.3,0.2-0.5,0.5-0.5h2.2c0,0,0-0.5,0-1.4c0-1,0.2-6.9,6.9-6.9
		c3.3,0,4.4,0.7,4.4,0.7s0,3.6,0,4c0,0.4-0.1,0.7-0.6,0.6c-0.4-0.2-1.7-0.5-2.7-0.5s-2.4,0.6-2.4,2.4c0,0.6,0,1.1,0,1.1h8.2
		c0.2,0,0.4,0.1,0.5,0.3l5.8,14.9l5.2-14.9c0.1-0.2,0.3-0.4,0.5-0.4h5.1c0.2,0,0.4,0.2,0.3,0.5c-1.2,3.1-7.9,20.5-8.8,22.7
		c-1,2.4-2.6,5.7-7.2,5.7c-2.7,0-4.4-0.9-5.1-1.4c-0.2-0.1-0.3-0.4-0.2-0.7l1.7-3.5c0.1-0.1,0.3-0.2,0.4-0.1
		c0.5,0.3,1.5,0.9,2.8,0.9c1.8,0,2.7-2.2,2.7-2.2l-7.1-16.9h-4.7v16.7c0,0.3-0.2,0.5-0.5,0.5h-4.6c-0.3,0-0.5-0.2-0.5-0.5
		L175.1,29.6z"/>
	<g>
		<path class="st0" d="M209.1,26.2h1.7c0.5,0,0.8,0.1,1.1,0.4c0.2,0.2,0.3,0.5,0.3,0.8v0c0,0.6-0.3,1-0.8,1.1l0.9,1.3h-0.9l-0.8-1.2
			h0h-0.6v1.2h-0.8V26.2z M210.7,28c0.4,0,0.6-0.2,0.6-0.5v0c0-0.3-0.2-0.5-0.6-0.5h-0.8V28H210.7z"/>
	</g>
	<g>
		<path class="st0" d="M210.5,31.6c-1.9,0-3.5-1.6-3.5-3.5s1.6-3.5,3.5-3.5c1.9,0,3.5,1.6,3.5,3.5S212.4,31.6,210.5,31.6z M210.5,25
			c-1.7,0-3.1,1.4-3.1,3.1s1.4,3.1,3.1,3.1c1.7,0,3.1-1.4,3.1-3.1S212.2,25,210.5,25z"/>
	</g>
	<g>
		<path class="st1" d="M46.1,47.3c-0.4,0-0.7-0.1-1.1-0.3c-12.6-7.6-27.4-3.2-27.6-3.1c-1.1,0.3-2.3-0.3-2.6-1.4
			c-0.3-1.1,0.3-2.3,1.4-2.6c0.7-0.2,16.8-5,31,3.6c1,0.6,1.3,1.9,0.7,2.9C47.5,46.9,46.8,47.3,46.1,47.3z"/>
	</g>
	<g>
		<path class="st1" d="M49.7,38.7c-0.4,0-0.8-0.1-1.2-0.3c-15.8-9.1-31.7-3.8-31.8-3.7c-1.3,0.4-2.7-0.2-3.1-1.5
			c-0.4-1.3,0.2-2.7,1.5-3.1c0.7-0.3,18.2-6,35.9,4.1c1.2,0.7,1.6,2.2,0.9,3.4C51.4,38.2,50.5,38.7,49.7,38.7z"/>
	</g>
	<g>
		<path class="st1" d="M53.6,28.9c-0.5,0-1-0.1-1.4-0.3c-18.2-9.5-36.8-3.8-37-3.8c-1.6,0.5-3.3-0.4-3.8-2c-0.5-1.6,0.4-3.3,2-3.8
			c0.9-0.3,21.3-6.5,41.7,4.2c1.5,0.8,2.1,2.6,1.3,4.1C55.8,28.3,54.7,28.9,53.6,28.9z"/>
	</g>
</g>
</svg>
