<?xml version="1.0" encoding="utf-8"?>
<!-- Generator: Adobe Illustrator 24.0.3, SVG Export Plug-In . SVG Version: 6.00 Build 0)  -->
<svg version="1.1" xmlns="http://www.w3.org/2000/svg" xmlns:xlink="http://www.w3.org/1999/xlink" x="0px" y="0px"
	 viewBox="0 0 250 64" style="enable-background:new 0 0 250 64;" xml:space="preserve">
<style type="text/css">
	.st0{display:none;}
	.st1{display:inline;}
	.st2{fill:#53B95F;}
	.st3{fill:#FFFFFF;}
	.st4{fill:#1D1D1B;}
	.st5{clip-path:url(#SVGID_2_);fill:url(#SVGID_3_);}
	.st6{clip-path:url(#SVGID_2_);fill:url(#SVGID_4_);}
	.st7{clip-path:url(#SVGID_2_);fill:url(#SVGID_5_);}
	.st8{clip-path:url(#SVGID_2_);fill:url(#SVGID_6_);}
	.st9{fill:#F9F9F9;}
	.st10{fill:#FCFCFC;}
</style>
<g id="Capa_1" class="st0">
	<g class="st1">
		<circle class="st2" cx="50.8" cy="32.1" r="31.9"/>
		<path class="st2" d="M103.5,17.3c1,0,5.2-0.3,10.4,3.6c0.2,0.2,0.3,0.5,0.1,0.7l-2.5,3.5c-0.2,0.2-0.5,0.3-0.8,0.1
			c-0.5-0.4-1.2-0.9-2.2-1.4c-1.5-0.8-3.4-1.4-5.1-1.4s-4.4,0.6-4.4,3.2c0,2.1,1.9,2.9,7.7,4.4c3.8,1,8.2,2.8,8.2,8.6
			c0,5.3-4.4,8.7-10.6,8.7c-3.7,0-8.8-1.4-12-4.6c-0.2-0.2-0.2-0.5,0-0.7l2.8-3.3c0.2-0.2,0.6-0.3,0.8,0c1.1,1,4.2,3.5,8.4,3.5
			c5,0,4.8-3,4.8-3.5c0-1-0.7-2.3-3.2-3c-2.5-0.7-8.7-1.9-11.1-4.6c-1.4-1.7-1.6-3.6-1.6-5C93.4,22.8,95.5,17.3,103.5,17.3z"/>
		<path class="st2" d="M129.5,24.2c-4.5,0-6.9,3.3-6.9,3.3v-2.3c0-0.3-0.2-0.5-0.5-0.5h-4.6c-0.3,0-0.5,0.2-0.5,0.5v27.7
			c0,0.3,0.2,0.5,0.5,0.5h4.6c0.3,0,0.5-0.2,0.5-0.5v-8.6c0,0,2.3,3,7.1,3c3.9,0,10.1-3.1,10.1-11.5C139.9,27.5,134,24.2,129.5,24.2
			z M128.3,42.4c-3.1,0-5.8-2.7-5.8-6.6c0-2.4,1.5-6.5,5.7-6.5c4.3,0,5.9,3.4,5.9,6.5C134.1,38.9,132.4,42.4,128.3,42.4z"/>
		<path class="st2" d="M153.2,24.2c-7.3,0-11.8,6-11.8,11.6c0,6.2,4.8,11.6,11.8,11.6c7,0,11.8-5.6,11.8-11.6
			C165.1,29.8,160.5,24.2,153.2,24.2z M153.3,42.4c-3,0-6.2-2.5-6.2-6.6s2.9-6.6,6.2-6.6c2.5,0,6.1,2.1,6.1,6.6
			S156.2,42.4,153.3,42.4z"/>
		<path class="st2" d="M179.6,29.1v-3.9c0-0.3-0.2-0.5-0.5-0.5h-5.3v-5.3c0-0.3-0.2-0.5-0.5-0.5h-4.5c-0.3,0-0.5,0.2-0.5,0.5v5.3
			H166c-0.3,0-0.5,0.2-0.5,0.5v3.9c0,0.3,0.2,0.5,0.5,0.5h2.2c0,0,0,8.6,0,11.1s1.1,6.5,6.1,6.5c2.3,0,4.2-0.8,5-1.1
			c0.2-0.1,0.3-0.3,0.3-0.5v-3.9c0-0.3-0.4-0.6-0.7-0.4c-0.5,0.4-1.4,0.7-2.6,0.7c-2.4,0-2.5-1.6-2.5-2.8s0-9.7,0-9.7h5.3
			C179.4,29.6,179.6,29.4,179.6,29.1z"/>
		<circle class="st2" cx="184.8" cy="18.4" r="3.5"/>
		<path class="st2" d="M186.2,46.9h-2.8c-0.8,0-1.4-0.6-1.4-1.4V26.1c0-0.8,0.6-1.4,1.4-1.4h2.8c0.8,0,1.4,0.6,1.4,1.4v19.4
			C187.6,46.2,187,46.9,186.2,46.9z"/>
		<path class="st2" d="M192.6,29.6h-2.2c-0.3,0-0.5-0.2-0.5-0.5v-3.9c0-0.3,0.2-0.5,0.5-0.5h2.2c0,0,0-0.5,0-1.4
			c0-1,0.2-6.9,6.9-6.9c3.3,0,4.4,0.7,4.4,0.7s0,3.6,0,4c0,0.4-0.1,0.7-0.6,0.6c-0.4-0.2-1.7-0.5-2.7-0.5s-2.4,0.6-2.4,2.4
			c0,0.6,0,1.1,0,1.1h8.2c0.2,0,0.4,0.1,0.5,0.3l5.8,14.9l5.2-14.9c0.1-0.2,0.3-0.4,0.5-0.4h5.1c0.2,0,0.4,0.2,0.3,0.5
			c-1.2,3.1-7.9,20.5-8.8,22.7c-1,2.4-2.6,5.7-7.2,5.7c-2.7,0-4.4-0.9-5.1-1.4c-0.2-0.1-0.3-0.4-0.2-0.7l1.7-3.5
			c0.1-0.1,0.3-0.2,0.4-0.1c0.5,0.3,1.5,0.9,2.8,0.9c1.8,0,2.7-2.2,2.7-2.2l-7.1-16.9h-4.7v16.7c0,0.3-0.2,0.5-0.5,0.5h-4.6
			c-0.3,0-0.5-0.2-0.5-0.5L192.6,29.6z"/>
		<g>
			<path class="st2" d="M226.6,26.2h1.7c0.5,0,0.8,0.1,1.1,0.4c0.2,0.2,0.3,0.5,0.3,0.8v0c0,0.6-0.3,1-0.8,1.1l0.9,1.3h-0.9
				l-0.8-1.2h0h-0.6v1.2h-0.8V26.2z M228.2,28c0.4,0,0.6-0.2,0.6-0.5v0c0-0.3-0.2-0.5-0.6-0.5h-0.8V28H228.2z"/>
		</g>
		<g>
			<path class="st2" d="M228,31.6c-1.9,0-3.5-1.6-3.5-3.5s1.6-3.5,3.5-3.5c1.9,0,3.5,1.6,3.5,3.5S229.9,31.6,228,31.6z M228,25
				c-1.7,0-3.1,1.4-3.1,3.1s1.4,3.1,3.1,3.1c1.7,0,3.1-1.4,3.1-3.1S229.7,25,228,25z"/>
		</g>
		<g>
			<path class="st3" d="M63.6,47.3c-0.4,0-0.7-0.1-1.1-0.3c-12.6-7.6-27.4-3.2-27.6-3.1c-1.1,0.3-2.3-0.3-2.6-1.4s0.3-2.3,1.4-2.6
				c0.7-0.2,16.8-5,31,3.6c1,0.6,1.3,1.9,0.7,2.9C65,46.9,64.3,47.3,63.6,47.3z"/>
		</g>
		<g>
			<path class="st3" d="M67.2,38.7c-0.4,0-0.8-0.1-1.2-0.3c-15.8-9.1-31.7-3.8-31.8-3.7c-1.3,0.4-2.7-0.2-3.1-1.5
				c-0.4-1.3,0.2-2.7,1.5-3.1c0.7-0.3,18.2-6,35.9,4.1c1.2,0.7,1.6,2.2,0.9,3.4C68.9,38.2,68,38.7,67.2,38.7z"/>
		</g>
		<g>
			<path class="st3" d="M71.1,28.9c-0.5,0-1-0.1-1.4-0.3c-18.2-9.5-36.8-3.8-37-3.8c-1.6,0.5-3.3-0.4-3.8-2c-0.5-1.6,0.4-3.3,2-3.8
				c0.9-0.3,21.3-6.5,41.7,4.2c1.5,0.8,2.1,2.6,1.3,4.1C73.3,28.3,72.2,28.9,71.1,28.9z"/>
		</g>
	</g>
</g>
<g id="Capa_2">
	<g>
		<path d="M118.7,47.9c0,2.9-2.3,5.2-5.2,5.2H5.9c-2.9,0-5.2-2.3-5.2-5.2V19.7c0-2.9,2.3-5.2,5.2-5.2h107.6c2.9,0,5.2,2.3,5.2,5.2
			V47.9z"/>
		<g>
			<path class="st3" d="M31.5,40c-0.6,1.4-0.9,2-1.7,3.2c-1.1,1.7-2.7,3.8-4.7,3.9c-1.7,0-2.2-1.1-4.6-1.1c-2.4,0-2.9,1.1-4.6,1.1
				c-2,0-3.5-1.9-4.6-3.6c-3.1-4.8-3.5-10.4-1.5-13.4c1.4-2.1,3.5-3.4,5.6-3.4c2.1,0,3.4,1.1,5.1,1.1c1.7,0,2.7-1.1,5.1-1.1
				c1.8,0,3.7,1,5.1,2.7C26.2,31.9,26.9,38.3,31.5,40z"/>
			<g>
				<path class="st3" d="M23.8,24.8c0.9-1.1,1.5-2.7,1.3-4.3c-1.4,0.1-3.1,1-4.1,2.2c-0.9,1.1-1.6,2.7-1.3,4.2
					C21.2,27,22.8,26,23.8,24.8z"/>
			</g>
		</g>
		<g>
			<g>
				<path class="st3" d="M41,30l-4.5,13.2h2.1l1.3-4.1h4.4l1.4,4.1h2.1L43.3,30H41z M42.1,32.2c0.2,0.6,0.3,1.2,0.5,1.9l1.2,3.5
					h-3.4l1.2-3.5C41.8,33.5,41.9,32.8,42.1,32.2z"/>
				<path class="st3" d="M53.6,33.5c-1.4,0-2.5,0.5-3.2,1.5l-0.1-1.3h-1.8l0,0.2c0.1,0.8,0.1,1.7,0.1,3V47h2v-4.8
					c0.6,0.7,1.6,1.2,2.7,1.2c1.2,0,2.2-0.5,3-1.3c0.9-0.9,1.3-2.3,1.3-3.9c0-1.4-0.4-2.6-1.2-3.5C55.8,33.9,54.8,33.5,53.6,33.5z
					 M53.1,35.1c1.8,0,2.6,1.7,2.6,3.3c0,2.1-1,3.4-2.7,3.4c-1.1,0-2.1-0.8-2.4-1.9c0-0.2-0.1-0.4-0.1-0.6v-1.6c0-0.1,0-0.3,0.1-0.5
					c0-0.1,0-0.1,0-0.2C51,35.9,52,35.1,53.1,35.1z"/>
				<path class="st3" d="M63.9,33.5c-1.4,0-2.5,0.5-3.2,1.5l-0.1-1.3h-1.8l0,0.2c0.1,0.8,0.1,1.7,0.1,3V47h2v-4.8
					c0.6,0.7,1.6,1.2,2.7,1.2c1.2,0,2.2-0.5,3-1.3c0.9-0.9,1.3-2.3,1.3-3.9c0-1.4-0.4-2.6-1.2-3.5C66.1,33.9,65.1,33.5,63.9,33.5z
					 M63.4,35.1c1.8,0,2.6,1.7,2.6,3.3c0,2.1-1,3.4-2.7,3.4c-1.1,0-2.1-0.8-2.4-1.9c0-0.2-0.1-0.4-0.1-0.6v-1.6c0-0.1,0-0.3,0.1-0.5
					c0-0.1,0-0.1,0-0.2C61.3,35.9,62.3,35.1,63.4,35.1z"/>
				<path class="st3" d="M76.8,35.6c-1.9-0.7-2.5-1.3-2.5-2.3c0-0.9,0.7-1.8,2.3-1.8c1.3,0,2.1,0.5,2.4,0.6l0.2,0.1l0.6-1.7
					l-0.1-0.1c-0.3-0.2-1.3-0.7-2.9-0.7c-2.6,0-4.3,1.5-4.3,3.7c0,1.7,1.1,3,3.5,3.8c1.7,0.6,2.3,1.3,2.3,2.4c0,1.3-1,2-2.5,2
					c-1,0-2.1-0.3-2.9-0.8l-0.2-0.1l-0.5,1.7l0.1,0.1c0.8,0.5,2.2,0.9,3.4,0.9c3.4,0,4.7-2.1,4.7-3.9C80.2,37.7,79.2,36.6,76.8,35.6
					z"/>
				<path class="st3" d="M83.8,31.4l-2,0.6v1.7h-1.4v1.6h1.4v4.9c0,1.2,0.2,2,0.7,2.5c0.4,0.5,1.1,0.8,1.9,0.8
					c0.8,0,1.3-0.1,1.5-0.2l0.1,0L86,41.6l-0.2,0.1c-0.3,0.1-0.5,0.1-0.9,0.1c-0.8,0-1.1-0.5-1.1-1.6v-4.8h2.4v-1.6h-2.4V31.4z"/>
				<path class="st3" d="M91.2,33.5c-2.8,0-4.8,2.1-4.8,5.1c0,2.9,1.9,4.9,4.6,4.9h0c2.3,0,4.8-1.6,4.8-5.1c0-1.4-0.4-2.6-1.3-3.5
					C93.7,33.9,92.5,33.5,91.2,33.5z M91.1,35c1.8,0,2.6,1.8,2.6,3.4c0,2-1.1,3.5-2.7,3.5h0c-1.5,0-2.6-1.4-2.6-3.4
					C88.5,36.8,89.3,35,91.1,35z"/>
				<path class="st3" d="M102,33.5l-0.1,0c-0.2,0-0.3-0.1-0.5-0.1c-1,0-2,0.6-2.5,1.6l-0.1-1.4H97l0,0.2c0.1,0.8,0.1,1.7,0.1,2.9
					l0,6.5h2v-5.1c0-0.3,0-0.5,0.1-0.8c0.2-1.2,1.1-2,2.1-2c0.2,0,0.4,0,0.5,0l0.2,0V33.5z"/>
				<path class="st3" d="M106.5,33.4c-2.7,0-4.5,2.1-4.5,5.2c0,2.9,1.9,4.8,4.7,4.8c1.5,0,2.6-0.3,3.2-0.6l0.1-0.1l-0.4-1.5
					l-0.2,0.1c-0.5,0.2-1.3,0.4-2.5,0.4c-0.9,0-2.9-0.3-3-2.9l6.5,0l0-0.1c0-0.2,0.1-0.5,0.1-0.8C110.4,35.9,109.4,33.4,106.5,33.4z
					 M106.3,35c0.6,0,1.1,0.2,1.5,0.6c0.6,0.6,0.7,1.4,0.7,1.9h-4.6C104.1,36.2,104.8,35,106.3,35z"/>
			</g>
			<g>
				<path class="st3" d="M36.5,21c0.6-0.1,1.2-0.1,1.9-0.1c1.3,0,2.2,0.3,2.8,0.8c0.6,0.5,1,1.2,1,2.3c0,1-0.4,1.9-1,2.4
					c-0.7,0.6-1.7,0.9-3.1,0.9c-0.7,0-1.2,0-1.6-0.1V21z M37.5,26.5c0.2,0,0.6,0,0.9,0c1.9,0,3-1,3-2.7c0-1.5-0.9-2.4-2.8-2.4
					c-0.5,0-0.8,0-1.1,0.1V26.5z"/>
				<path class="st3" d="M45.5,27.3c-1.3,0-2.4-0.9-2.4-2.3c0-1.5,1.1-2.4,2.5-2.4c1.4,0,2.4,0.9,2.4,2.3
					C48,26.5,46.7,27.3,45.5,27.3L45.5,27.3z M45.5,26.7c0.9,0,1.5-0.7,1.5-1.8c0-0.8-0.4-1.7-1.5-1.7c-1.1,0-1.5,0.9-1.5,1.7
					C44,25.9,44.6,26.7,45.5,26.7L45.5,26.7z"/>
				<path class="st3" d="M49.4,22.7l0.7,2.3c0.1,0.5,0.3,1,0.4,1.4h0c0.1-0.5,0.3-0.9,0.4-1.4l0.8-2.3h0.8l0.8,2.2
					c0.2,0.5,0.3,1,0.4,1.5h0c0.1-0.5,0.2-0.9,0.4-1.5l0.7-2.3h0.9l-1.6,4.5h-0.8L52.6,25c-0.2-0.5-0.3-1-0.4-1.5h0
					c-0.1,0.5-0.3,1-0.5,1.5l-0.8,2.1H50l-1.5-4.5H49.4z"/>
				<path class="st3" d="M56.7,23.9c0-0.5,0-0.8,0-1.2h0.8l0.1,0.7h0c0.2-0.4,0.8-0.8,1.7-0.8c0.7,0,1.8,0.4,1.8,1.9v2.7H60v-2.6
					c0-0.7-0.3-1.3-1.2-1.3c-0.6,0-1.1,0.4-1.2,0.8c0,0.1-0.1,0.3-0.1,0.4v2.7h-0.9V23.9z"/>
				<path class="st3" d="M62.4,20.6h0.9v6.6h-0.9V20.6z"/>
				<path class="st3" d="M66.8,27.3c-1.3,0-2.4-0.9-2.4-2.3c0-1.5,1.1-2.4,2.5-2.4c1.4,0,2.4,0.9,2.4,2.3
					C69.3,26.5,68,27.3,66.8,27.3L66.8,27.3z M66.9,26.7c0.9,0,1.5-0.7,1.5-1.8c0-0.8-0.4-1.7-1.5-1.7c-1.1,0-1.5,0.9-1.5,1.7
					C65.4,25.9,66,26.7,66.9,26.7L66.9,26.7z"/>
				<path class="st3" d="M74,26.1c0,0.4,0,0.8,0.1,1.1h-0.8l-0.1-0.6h0c-0.3,0.4-0.8,0.7-1.5,0.7c-1,0-1.5-0.6-1.5-1.3
					c0-1.1,1.1-1.7,3-1.7v-0.1c0-0.4-0.1-1-1.1-1c-0.5,0-1,0.1-1.3,0.3L70.4,23c0.4-0.2,1-0.4,1.7-0.4c1.5,0,1.9,0.9,1.9,1.8V26.1z
					 M73.1,24.9c-1,0-2.1,0.1-2.1,1c0,0.5,0.4,0.8,0.8,0.8c0.7,0,1.1-0.4,1.2-0.8c0-0.1,0-0.2,0-0.3V24.9z"/>
				<path class="st3" d="M79.8,20.6V26c0,0.4,0,0.9,0,1.2H79l0-0.8h0c-0.3,0.5-0.9,0.9-1.7,0.9c-1.2,0-2.1-0.9-2.1-2.3
					c0-1.5,1-2.4,2.2-2.4c0.8,0,1.3,0.3,1.5,0.7h0v-2.7H79.8z M78.9,24.5c0-0.1,0-0.2,0-0.4c-0.1-0.5-0.6-0.9-1.3-0.9
					c-0.9,0-1.5,0.7-1.5,1.7c0,0.9,0.5,1.7,1.5,1.7c0.6,0,1.2-0.4,1.3-1c0-0.1,0-0.2,0-0.4V24.5z"/>
				<path class="st3" d="M85.5,27.3c-1.3,0-2.4-0.9-2.4-2.3c0-1.5,1.1-2.4,2.5-2.4c1.4,0,2.4,0.9,2.4,2.3
					C88,26.5,86.7,27.3,85.5,27.3L85.5,27.3z M85.5,26.7c0.9,0,1.5-0.7,1.5-1.8c0-0.8-0.4-1.7-1.5-1.7c-1.1,0-1.5,0.9-1.5,1.7
					C84,25.9,84.6,26.7,85.5,26.7L85.5,26.7z"/>
				<path class="st3" d="M89.1,23.9c0-0.5,0-0.8,0-1.2h0.8l0.1,0.7h0c0.2-0.4,0.8-0.8,1.7-0.8c0.7,0,1.8,0.4,1.8,1.9v2.7h-0.9v-2.6
					c0-0.7-0.3-1.3-1.2-1.3c-0.6,0-1.1,0.4-1.2,0.8c0,0.1-0.1,0.3-0.1,0.4v2.7h-0.9V23.9z"/>
				<path class="st3" d="M98.1,21.6v1.1h1.3v0.6h-1.3v2.4c0,0.6,0.2,0.9,0.7,0.9c0.2,0,0.4,0,0.5-0.1l0,0.6
					c-0.2,0.1-0.5,0.1-0.8,0.1c-0.4,0-0.8-0.1-1-0.3c-0.2-0.3-0.4-0.7-0.4-1.2v-2.5h-0.8v-0.6h0.8v-0.8L98.1,21.6z"/>
				<path class="st3" d="M100.5,20.6h0.9v2.8h0c0.1-0.2,0.4-0.4,0.7-0.6c0.3-0.1,0.6-0.2,0.9-0.2c0.7,0,1.7,0.4,1.7,1.9v2.7h-0.9
					v-2.6c0-0.7-0.3-1.3-1.2-1.3c-0.6,0-1,0.4-1.2,0.8c-0.1,0.1-0.1,0.2-0.1,0.4v2.7h-0.9V20.6z"/>
				<path class="st3" d="M106.7,25.1c0,1.1,0.8,1.6,1.7,1.6c0.7,0,1.1-0.1,1.4-0.2L110,27c-0.3,0.1-0.9,0.3-1.7,0.3
					c-1.5,0-2.5-0.9-2.5-2.3c0-1.4,0.9-2.4,2.4-2.4c1.6,0,2.1,1.3,2.1,2.1c0,0.2,0,0.3,0,0.4L106.7,25.1z M109.4,24.5
					c0-0.5-0.2-1.3-1.2-1.3c-0.9,0-1.3,0.8-1.4,1.3H109.4z"/>
			</g>
		</g>
	</g>
	<path class="st4" d="M248.6,47.9c0,2.9-2.3,5.2-5.2,5.2H135.8c-2.9,0-5.2-2.3-5.2-5.2V19.8c0-2.9,2.3-5.2,5.2-5.2h107.6
		c2.9,0,5.2,2.3,5.2,5.2V47.9z"/>
	<g id="PLAY_1_">
		<defs>
			<path id="SVGID_1_" d="M156.1,31.5l-5.3-3.1c0,0-9.7-5.6-10.3-5.9s-1.1-0.1-1.1,0.6c0,1.1,0,12,0,12s0,11.7,0,12.2
				c0,0.5,0.4,0.7,0.9,0.5c0.5-0.3,10.5-6.1,10.5-6.1l5.3-3.1c0,0,4.5-2.6,5.1-3c0.6-0.3,0.5-0.8,0-1.1
				C160.8,34.2,156.1,31.5,156.1,31.5z"/>
		</defs>
		<clipPath id="SVGID_2_">
			<use xlink:href="#SVGID_1_"  style="overflow:visible;"/>
		</clipPath>
		<linearGradient id="SVGID_3_" gradientUnits="userSpaceOnUse" x1="145.9696" y1="21.9435" x2="145.9696" y2="48.1306">
			<stop  offset="0" style="stop-color:#207AB0"/>
			<stop  offset="0.3206" style="stop-color:#4A98B5"/>
			<stop  offset="0.7782" style="stop-color:#81C0BB"/>
			<stop  offset="1" style="stop-color:#97CFBE"/>
		</linearGradient>
		<polygon class="st5" points="139.4,21.9 139.4,35 139.4,48.1 152.6,35 		"/>
		<linearGradient id="SVGID_4_" gradientUnits="userSpaceOnUse" x1="139.3671" y1="28.4428" x2="156.1189" y2="28.4428">
			<stop  offset="0" style="stop-color:#59BBAA"/>
			<stop  offset="1" style="stop-color:#E6E89A"/>
		</linearGradient>
		<polygon class="st6" points="156.1,31.5 150.8,28.4 139.4,21.8 139.4,21.9 152.6,35 		"/>
		<linearGradient id="SVGID_5_" gradientUnits="userSpaceOnUse" x1="147.7428" y1="35.0373" x2="147.7428" y2="48.2258">
			<stop  offset="0" style="stop-color:#E43332"/>
			<stop  offset="0.1636" style="stop-color:#D43643"/>
			<stop  offset="0.7271" style="stop-color:#A23E7A"/>
			<stop  offset="1" style="stop-color:#8E4190"/>
		</linearGradient>
		<polygon class="st7" points="139.4,48.1 139.4,48.2 150.8,41.6 156.1,38.6 152.6,35 		"/>
		<linearGradient id="SVGID_6_" gradientUnits="userSpaceOnUse" x1="157.3912" y1="31.5203" x2="157.3912" y2="38.5538">
			<stop  offset="0" style="stop-color:#F08779"/>
			<stop  offset="0.6326" style="stop-color:#F8B474"/>
			<stop  offset="1" style="stop-color:#FCCA72"/>
		</linearGradient>
		<polygon class="st8" points="156.1,31.5 152.6,35 156.1,38.6 162.2,35 		"/>
	</g>
	<g>
		<path class="st9" d="M222.5,40.2c-0.5,0-0.9-0.1-1.4-0.3c-0.4-0.2-0.8-0.5-1-0.8H220c0.1,0.4,0.1,0.9,0.1,1.3v3.1H219v-11h0.9
			l0.2,1h0.1c0.3-0.4,0.6-0.7,1-0.9c0.4-0.2,0.8-0.3,1.4-0.3c1,0,1.8,0.3,2.3,1c0.5,0.7,0.8,1.7,0.8,2.9c0,1.3-0.3,2.2-0.8,2.9
			C224.3,39.8,223.5,40.2,222.5,40.2z M222.3,33.2c-0.8,0-1.3,0.2-1.7,0.6c-0.3,0.4-0.5,1.1-0.5,2.1v0.3c0,1.1,0.2,1.8,0.5,2.3
			c0.4,0.5,0.9,0.7,1.7,0.7c0.7,0,1.2-0.3,1.5-0.8c0.4-0.5,0.6-1.3,0.6-2.2c0-0.9-0.2-1.7-0.6-2.2C223.5,33.5,223,33.2,222.3,33.2z"
			/>
		<path class="st9" d="M228.3,40h-1.2V29.2h1.2V40z"/>
		<path class="st9" d="M235,40l-0.2-1.1h-0.1c-0.4,0.5-0.8,0.8-1.1,1c-0.4,0.2-0.8,0.3-1.4,0.3c-0.8,0-1.3-0.2-1.8-0.6
			s-0.6-0.9-0.6-1.7c0-1.5,1.2-2.3,3.7-2.4l1.3,0V35c0-0.6-0.1-1-0.4-1.3c-0.3-0.3-0.7-0.4-1.2-0.4c-0.6,0-1.4,0.2-2.2,0.6l-0.4-0.9
			c0.4-0.2,0.8-0.4,1.2-0.5c0.4-0.1,0.9-0.2,1.3-0.2c0.9,0,1.6,0.2,2,0.6c0.4,0.4,0.7,1,0.7,1.9V40H235z M232.4,39.2
			c0.7,0,1.3-0.2,1.7-0.6c0.4-0.4,0.6-0.9,0.6-1.7v-0.7l-1.2,0c-0.9,0-1.6,0.2-2,0.4c-0.4,0.3-0.6,0.6-0.6,1.2c0,0.4,0.1,0.7,0.4,1
			C231.6,39.1,231.9,39.2,232.4,39.2z"/>
		<path class="st9" d="M236.5,32.4h1.2l1.7,4.3c0.4,1,0.6,1.7,0.7,2.1h0.1c0.1-0.2,0.2-0.6,0.4-1.2c0.2-0.6,0.8-2.3,1.9-5.3h1.2
			l-3.3,8.7c-0.3,0.9-0.7,1.5-1.1,1.8c-0.4,0.4-1,0.5-1.6,0.5c-0.4,0-0.7,0-1-0.1v-0.9c0.3,0.1,0.5,0.1,0.9,0.1
			c0.8,0,1.4-0.4,1.7-1.3l0.4-1.1L236.5,32.4z"/>
	</g>
	<g>
		<path class="st9" d="M201.1,33.1c0.4,0.3,1.1,0.9,1.1,2.2c0,1.2-0.7,1.7-1.3,2.3c-0.2,0.2-0.4,0.4-0.4,0.8c0,0.3,0.2,0.5,0.4,0.7
			l0.6,0.4c0.7,0.6,1.3,1.1,1.3,2.2c0,1.5-1.4,3-4.2,3c-2.3,0-3.4-1.1-3.4-2.3c0-0.6,0.3-1.4,1.2-1.9c1-0.6,2.3-0.7,3-0.7
			c-0.2-0.3-0.5-0.6-0.5-1.1c0-0.3,0.1-0.4,0.2-0.6c-0.2,0-0.4,0-0.5,0c-1.7,0-2.6-1.3-2.6-2.5c0-0.7,0.3-1.5,1-2.1
			c0.9-0.7,2-0.9,2.9-0.9h3.3l-1,0.6H201.1z M200,40.2c-0.1,0-0.2,0-0.4,0c-0.1,0-1,0-1.7,0.3c-0.4,0.1-1.4,0.5-1.4,1.6
			c0,1.1,1.1,1.9,2.8,1.9c1.5,0,2.3-0.7,2.3-1.7C201.7,41.5,201.2,41,200,40.2z M200.5,37.2c0.4-0.4,0.4-0.9,0.4-1.2
			c0-1.1-0.7-2.9-2-2.9c-0.4,0-0.9,0.2-1.1,0.5c-0.3,0.3-0.4,0.8-0.4,1.2c0,1.1,0.6,2.8,2,2.8C199.8,37.6,200.2,37.4,200.5,37.2z"/>
		<path class="st9" d="M191.1,39.9c-2.5,0-3.9-2-3.9-3.8c0-2.1,1.7-3.9,4.1-3.9c2.3,0,3.8,1.8,3.8,3.8
			C195.1,37.9,193.7,39.9,191.1,39.9z M193.1,38.6c0.4-0.5,0.5-1.1,0.5-1.8c0-1.4-0.7-4.1-2.6-4.1c-0.5,0-1,0.2-1.4,0.5
			c-0.6,0.6-0.7,1.3-0.7,1.9c0,1.6,0.8,4.2,2.7,4.2C192.1,39.4,192.7,39.1,193.1,38.6z"/>
		<path class="st9" d="M182.5,39.9c-2.5,0-3.9-2-3.9-3.8c0-2.1,1.7-3.9,4.1-3.9c2.3,0,3.8,1.8,3.8,3.8
			C186.5,37.9,185.1,39.9,182.5,39.9z M184.5,38.6c0.4-0.5,0.5-1.1,0.5-1.8c0-1.4-0.7-4.1-2.6-4.1c-0.5,0-1,0.2-1.4,0.5
			c-0.6,0.6-0.7,1.3-0.7,1.9c0,1.6,0.8,4.2,2.7,4.2C183.5,39.4,184.1,39.1,184.5,38.6z"/>
		<path class="st9" d="M177.4,39.7l-2.3,0.5c-0.9,0.1-1.8,0.3-2.6,0.3c-4.4,0-6.1-3.2-6.1-5.8c0-3.1,2.4-6,6.5-6
			c0.9,0,1.7,0.1,2.4,0.3c1.2,0.3,1.8,0.8,2.1,1l-1.3,1.3l-0.6,0.1l0.4-0.6c-0.5-0.5-1.5-1.5-3.4-1.5c-2.5,0-4.4,1.9-4.4,4.7
			c0,3,2.2,5.8,5.7,5.8c1,0,1.6-0.2,2-0.4v-2.6l-2.4,0.1l1.3-0.7h3.4l-0.4,0.4c-0.1,0.1-0.1,0.1-0.2,0.3c0,0.1,0,0.6,0,0.8V39.7z"/>
		<path class="st9" d="M206.2,39.2c-0.5,0-0.6-0.1-0.6-0.8v-0.2v-8.9c0,0,0-0.1,0-0.1c0.1-0.6,0.2-0.7,0.7-0.9H204l-1.2,0.6h1.2v0
			l0,0v9.3v0.5c0,0.3-0.1,0.4-0.4,0.8h2.8l0.6-0.4C206.7,39.3,206.5,39.2,206.2,39.2z"/>
		<path class="st9" d="M212.7,39.4c-0.2,0.1-0.3,0.2-0.5,0.3c-0.5,0.2-1.1,0.3-1.5,0.3c-0.5,0-1.3,0-2.1-0.6
			c-1.1-0.8-1.6-2.2-1.6-3.4c0-2.5,2-3.7,3.6-3.7c0.6,0,1.2,0.1,1.6,0.4c0.8,0.5,1,1.2,1.1,1.6l-3.7,1.5l-1.2,0.1
			c0.4,2,1.8,3.2,3.3,3.2c0.8,0,1.4-0.3,1.9-0.6L212.7,39.4z M211.2,34.6c0.3-0.1,0.5-0.2,0.5-0.4c0-0.6-0.7-1.4-1.6-1.4
			c-0.6,0-1.8,0.5-1.8,2.2c0,0.3,0,0.6,0,0.8L211.2,34.6z"/>
		<g>
			<path class="st9" d="M214.2,32.4v1h-0.1v-1h-0.3v-0.1h0.8v0.1H214.2z"/>
			<path class="st9" d="M215.7,33.5v-1.1h0l-0.3,1.1h-0.1l-0.3-1.1h0v1.1h-0.1v-1.2h0.2l0.3,0.9h0l0.3-0.9h0.2v1.2H215.7z"/>
		</g>
	</g>
	<g>
		<path class="st10" d="M169.5,25.6h-0.8c0-0.1-0.1-0.4-0.2-0.9h-1.1c-0.2,0.5-0.2,0.8-0.2,0.9h-0.7c0-0.1,0.2-0.6,0.6-1.6
			c0.4-1,0.6-1.5,0.6-1.6h0.9c0,0.1,0.2,0.6,0.5,1.6C169.4,25,169.5,25.5,169.5,25.6z M168.4,24.2c-0.3-0.9-0.4-1.3-0.4-1.4h0
			c0,0.1-0.1,0.5-0.4,1.4H168.4z"/>
		<path class="st10" d="M172.8,25.6h-0.6c0-0.1-0.2-0.4-0.7-1.1c-0.5-0.7-0.7-1.2-0.8-1.4h0c0,0.4,0.1,0.7,0.1,1c0,0.4,0,0.9,0,1.5
			h-0.6c0-0.5,0-1.1,0-1.7c0-0.6,0-1.1,0-1.5h0.7c0,0.1,0.2,0.4,0.6,1.1c0.4,0.7,0.7,1.1,0.7,1.3h0c0-0.4-0.1-0.7-0.1-1
			c0-0.4,0-0.9,0-1.4h0.6c0,0.4,0,0.9,0,1.5C172.7,24.5,172.7,25.1,172.8,25.6z"/>
		<path class="st10" d="M176.3,23.9c0,0.5-0.2,0.9-0.5,1.2c-0.3,0.4-0.7,0.5-1.3,0.5c-0.2,0-0.6,0-1,0c0-0.5,0-1.1,0-1.7
			c0-0.6,0-1.1,0-1.5h0.4c0.1,0,0.2,0,0.3,0c0.1,0,0.2,0,0.3,0c0.6,0,1,0.1,1.3,0.4C176.2,23.1,176.3,23.5,176.3,23.9z M175.7,24
			c0-0.3-0.1-0.6-0.3-0.8c-0.2-0.2-0.5-0.3-0.8-0.3c-0.1,0-0.2,0-0.3,0c0,0.3,0,0.7,0,1c0,0.4,0,0.8,0,1.2c0.1,0,0.2,0,0.3,0
			c0.4,0,0.6-0.1,0.8-0.3C175.6,24.6,175.7,24.3,175.7,24z"/>
		<path class="st10" d="M179.7,25.6h-0.7c-0.2-0.6-0.3-0.9-0.4-1.1c-0.1-0.1-0.3-0.2-0.5-0.2c-0.1,0-0.2,0-0.3,0c0,0.4,0,0.9,0,1.3
			h-0.7c0-0.5,0-1.1,0-1.7c0-0.6,0-1.1,0-1.5h0.4c0,0,0.2,0,0.3,0c0.2,0,0.3,0,0.4,0c0.8,0,1.1,0.3,1.1,0.8c0,0.4-0.2,0.7-0.7,0.9v0
			c0.2,0,0.3,0.2,0.4,0.4C179.3,24.6,179.5,25,179.7,25.6z M178.7,23.3c0-0.3-0.2-0.5-0.6-0.5c-0.2,0-0.3,0-0.4,0c0,0.3,0,0.6,0,1
			c0.1,0,0.2,0,0.2,0C178.5,23.9,178.7,23.7,178.7,23.3z"/>
		<path class="st10" d="M183.2,23.9c0,0.5-0.2,0.9-0.5,1.3c-0.3,0.3-0.7,0.5-1.2,0.5c-0.4,0-0.8-0.2-1.1-0.5
			c-0.3-0.3-0.4-0.7-0.4-1.2c0-0.5,0.2-0.9,0.5-1.3c0.3-0.3,0.7-0.5,1.2-0.5c0.4,0,0.8,0.2,1.1,0.5
			C183.1,23.1,183.2,23.4,183.2,23.9z M182.5,24c0-0.3-0.1-0.6-0.3-0.8c-0.2-0.2-0.4-0.3-0.7-0.3c-0.2,0-0.4,0.1-0.6,0.3
			c-0.2,0.2-0.3,0.5-0.3,0.8c0,0.3,0.1,0.6,0.3,0.8c0.2,0.2,0.4,0.3,0.7,0.3c0.2,0,0.4-0.1,0.6-0.3C182.5,24.6,182.5,24.3,182.5,24z
			"/>
		<path class="st10" d="M184.6,25.6h-0.7c0-0.5,0-1.1,0-1.7c0-0.6,0-1.1,0-1.5h0.7c0,0.4,0,0.9,0,1.5
			C184.6,24.5,184.6,25.1,184.6,25.6z"/>
		<path class="st10" d="M188.2,23.9c0,0.5-0.2,0.9-0.5,1.2c-0.3,0.4-0.7,0.5-1.3,0.5c-0.2,0-0.6,0-1,0c0-0.5,0-1.1,0-1.7
			c0-0.6,0-1.1,0-1.5h0.4c0.1,0,0.2,0,0.3,0c0.1,0,0.2,0,0.3,0c0.6,0,1,0.1,1.3,0.4C188.1,23.1,188.2,23.5,188.2,23.9z M187.6,24
			c0-0.3-0.1-0.6-0.3-0.8c-0.2-0.2-0.5-0.3-0.8-0.3c-0.1,0-0.2,0-0.3,0c0,0.3,0,0.7,0,1c0,0.4,0,0.8,0,1.2c0.1,0,0.2,0,0.3,0
			c0.4,0,0.6-0.1,0.8-0.3C187.5,24.6,187.6,24.3,187.6,24z"/>
		<path class="st10" d="M193,25.6h-0.8c0-0.1-0.1-0.4-0.2-0.9h-1.1c-0.2,0.5-0.2,0.8-0.2,0.9h-0.7c0-0.1,0.2-0.6,0.6-1.6
			c0.4-1,0.6-1.5,0.6-1.6h0.9c0,0.1,0.2,0.6,0.5,1.6C192.8,25,193,25.5,193,25.6z M191.9,24.2c-0.3-0.9-0.4-1.3-0.4-1.4h0
			c0,0.1-0.1,0.5-0.4,1.4H191.9z"/>
		<path class="st10" d="M195.9,23.2c0,0.4-0.1,0.7-0.4,0.9c-0.3,0.2-0.7,0.3-1.1,0.3c-0.1,0-0.1,0-0.2,0c0,0.3,0,0.7,0,1.2h-0.7
			c0-0.5,0-1,0-1.7c0-0.6,0-1.1,0-1.5h0.4c0.1,0,0.2,0,0.4,0c0.2,0,0.3,0,0.5,0c0.3,0,0.6,0.1,0.8,0.2
			C195.8,22.7,195.9,22.9,195.9,23.2z M195.3,23.3c0-0.4-0.2-0.5-0.7-0.5c-0.1,0-0.2,0-0.4,0c0,0.3,0,0.7,0,1.1c0,0,0.1,0,0.1,0
			C195,23.9,195.3,23.7,195.3,23.3z"/>
		<path class="st10" d="M198.9,23.2c0,0.4-0.1,0.7-0.4,0.9c-0.3,0.2-0.7,0.3-1.1,0.3c-0.1,0-0.1,0-0.2,0c0,0.3,0,0.7,0,1.2h-0.7
			c0-0.5,0-1,0-1.7c0-0.6,0-1.1,0-1.5h0.4c0.1,0,0.2,0,0.4,0c0.2,0,0.3,0,0.5,0c0.3,0,0.6,0.1,0.8,0.2
			C198.8,22.7,198.9,22.9,198.9,23.2z M198.2,23.3c0-0.4-0.2-0.5-0.7-0.5c-0.1,0-0.2,0-0.4,0c0,0.3,0,0.7,0,1.1c0,0,0.1,0,0.1,0
			C197.9,23.9,198.2,23.7,198.2,23.3z"/>
		<path class="st10" d="M203.7,23.9c0,0.5-0.2,0.9-0.5,1.3c-0.3,0.3-0.7,0.5-1.2,0.5c-0.4,0-0.8-0.2-1.1-0.5
			c-0.3-0.3-0.4-0.7-0.4-1.2c0-0.5,0.2-0.9,0.5-1.3c0.3-0.3,0.7-0.5,1.2-0.5c0.4,0,0.8,0.2,1.1,0.5
			C203.6,23.1,203.7,23.4,203.7,23.9z M203.1,24c0-0.3-0.1-0.6-0.3-0.8c-0.2-0.2-0.4-0.3-0.7-0.3c-0.2,0-0.4,0.1-0.6,0.3
			c-0.2,0.2-0.3,0.5-0.3,0.8c0,0.3,0.1,0.6,0.3,0.8c0.2,0.2,0.4,0.3,0.7,0.3c0.2,0,0.4-0.1,0.6-0.3C203,24.6,203.1,24.3,203.1,24z"
			/>
		<path class="st10" d="M207.1,25.6h-0.6c0-0.1-0.2-0.4-0.7-1.1c-0.5-0.7-0.7-1.2-0.8-1.4h0c0,0.4,0.1,0.7,0.1,1c0,0.4,0,0.9,0,1.5
			h-0.6c0-0.5,0-1.1,0-1.7c0-0.6,0-1.1,0-1.5h0.7c0,0.1,0.2,0.4,0.6,1.1c0.4,0.7,0.7,1.1,0.7,1.3h0c0-0.4-0.1-0.7-0.1-1
			c0-0.4,0-0.9,0-1.4h0.6c0,0.4,0,0.9,0,1.5C207.1,24.5,207.1,25.1,207.1,25.6z"/>
	</g>
</g>
</svg>
