<svg width="218" height="50" viewBox="0 0 218 50" fill="none" xmlns="http://www.w3.org/2000/svg">
<g clip-path="url(#clip0)">
<path d="M70.6642 17.2337C70.6642 16.3842 70.6035 15.5347 70.5428 14.7459C70.2999 11.2265 69.875 7.16093 67.5074 4.30899C65.5041 1.88181 62.408 1.33569 59.4333 1.03229C55.7302 0.607537 51.9663 0.364818 48.2025 0.182779C40.6141 -0.120619 33.0257 0.0614201 25.3765 0.243459C21.4913 0.304139 17.606 0.364818 13.7207 0.668216C8.92484 1.03229 4.00755 1.76045 1.82209 6.49346C-0.181255 10.8017 0.0615739 16.2022 0.0615739 20.8138C0.000866539 25.0007 0.000866539 29.127 0.122281 33.2532C0.36511 38.593 0.668648 45.5711 6.43584 47.9376C9.53192 49.2119 13.2351 49.4546 16.574 49.6973C20.095 49.9401 23.5553 49.8794 27.0763 49.9401C34.4219 50.0614 41.7675 49.8187 49.1131 49.6367C54.2125 49.5153 59.4333 49.4546 64.3506 47.8163C68.5394 46.36 69.6929 41.809 70.2392 37.8648C70.7856 33.9206 70.6642 29.9158 70.6642 25.9716C70.6642 23.059 70.7249 20.1464 70.6642 17.2337Z" fill="#FF0000"/>
<path d="M46.5018 24.9393C40.3097 21.2985 34.2996 17.7791 28.1682 14.199C28.1682 21.4198 28.1682 28.5194 28.1682 35.6796C34.2996 32.0995 40.3097 28.5194 46.5018 24.9393Z" fill="white"/>
<path d="M131.067 14.017C133.131 14.017 135.074 14.017 137.138 14.017C137.138 24.8786 137.138 35.6796 137.138 46.6019C135.195 46.6019 133.253 46.6019 131.189 46.6019C131.189 45.5097 131.189 44.4175 131.189 43.2039C130.642 43.75 130.217 44.1747 129.732 44.5995C128.335 45.9344 126.818 47.0874 124.754 47.0874C122.872 47.0874 121.415 46.2378 120.929 44.4175C120.565 43.1432 120.322 41.7476 120.322 40.4126C120.261 31.7961 120.201 23.1189 120.201 14.5024C120.201 14.381 120.201 14.2597 120.261 14.0776C122.204 14.0776 124.146 14.0776 126.211 14.0776C126.211 14.3204 126.271 14.6238 126.271 14.8665C126.332 23.1796 126.332 31.4927 126.393 39.8058C126.393 40.0485 126.393 40.2912 126.393 40.534C126.514 41.5655 127.243 42.1116 128.153 41.6869C128.882 41.3835 129.549 40.7767 130.157 40.2306C130.946 39.5024 131.249 38.5922 131.249 37.4393C131.189 29.9757 131.189 22.5121 131.128 15.0485C131.067 14.7451 131.067 14.381 131.067 14.017Z" fill="black"/>
<path d="M99.6207 3.0946C98.528 6.6747 97.496 10.1941 96.4639 13.6529C95.007 18.5679 93.4893 23.483 92.0323 28.398C91.9109 28.7621 91.8502 29.1262 91.8502 29.5509C91.8502 34.9514 91.9109 40.2912 91.9716 45.6917C91.9716 45.9344 91.9716 46.2378 91.9716 46.5412C89.8468 46.5412 87.8435 46.5412 85.658 46.5412C85.658 46.2378 85.658 45.9951 85.658 45.7524C85.658 40.3519 85.5973 34.9514 85.5366 29.5509C85.5366 28.9441 85.3545 28.2766 85.1724 27.6698C82.6834 19.7815 80.1944 11.8325 77.7054 3.94412C77.6447 3.7014 77.584 3.51936 77.4625 3.15528C79.5873 3.15528 81.6513 3.15528 83.7154 3.15528C83.8975 3.15528 84.1403 3.51936 84.2618 3.76208C85.2331 7.2815 86.2044 10.8009 87.115 14.3203C87.6007 16.1407 88.147 18.0218 88.7541 19.9029C89.0576 18.6893 89.4219 17.4757 89.7254 16.2621C90.7574 12.1359 91.8502 8.00965 92.8822 3.82276C93.0036 3.33732 93.1857 3.0946 93.7321 3.0946C95.614 3.0946 97.5567 3.0946 99.6207 3.0946Z" fill="black"/>
<path d="M98.5887 30.2791C98.5887 27.7912 98.528 25.3034 98.5887 22.8155C98.6494 21.6019 98.8922 20.3883 99.2565 19.1747C100.167 16.2621 102.11 14.381 105.206 13.9563C108.666 13.4708 111.701 14.1383 113.826 17.1723C114.919 18.6893 115.344 20.5097 115.465 22.3301C115.587 23.9077 115.587 25.4854 115.647 27.1237C115.647 30.5825 115.708 34.1019 115.647 37.5606C115.647 38.7742 115.465 40.0485 115.162 41.2014C114.251 44.7815 111.034 47.148 107.331 47.2087C103.567 47.2694 100.167 44.9029 99.2565 41.3228C98.8315 39.6844 98.7101 37.9854 98.6494 36.347C98.528 34.2839 98.5887 32.2815 98.5887 30.2791ZM109.82 30.5825H109.759C109.759 28.0339 109.759 25.4854 109.759 22.9975C109.759 22.3301 109.637 21.6626 109.455 20.9951C109.091 19.8422 108.241 19.2961 107.027 19.2961C105.874 19.2961 105.024 19.9635 104.72 21.1165C104.538 21.7233 104.477 22.3301 104.477 22.9975C104.477 27.9733 104.538 33.0097 104.599 37.9854C104.599 38.7135 104.72 39.4417 104.902 40.1092C105.206 41.2621 106.116 41.8689 107.27 41.8082C108.363 41.8082 109.212 41.2014 109.516 40.0485C109.698 39.381 109.759 38.6529 109.759 37.9854C109.82 35.4975 109.82 33.0097 109.82 30.5825Z" fill="black"/>
<path d="M184.55 16.7476C185.764 15.8374 186.857 14.8058 188.132 14.1383C191.349 12.5 194.628 13.9563 195.417 17.4757C195.842 19.3568 196.085 21.2985 196.145 23.1796C196.206 27.9733 196.206 32.767 196.145 37.5607C196.085 39.3204 195.963 41.1408 195.599 42.8398C194.688 46.6626 191.107 48.1189 187.707 46.1165C186.554 45.449 185.582 44.4781 184.49 43.6286C184.49 44.1747 184.49 44.7815 184.49 45.3883C184.49 46.6626 184.611 46.5412 183.397 46.5412C182.122 46.5412 180.847 46.5412 179.572 46.5412C178.601 46.5412 178.601 46.5412 178.601 45.5704C178.601 37.9247 178.601 30.2791 178.601 22.6335C178.601 16.3228 178.601 10.0121 178.601 3.64076C178.601 2.9126 178.844 2.73056 179.512 2.79124C180.969 2.85192 182.425 2.85192 183.882 2.79124C184.49 2.79124 184.611 2.97328 184.611 3.5194C184.611 7.52425 184.611 11.5291 184.55 15.534C184.55 16.0801 184.55 16.4442 184.55 16.7476ZM184.55 30.2791C184.49 33.1917 184.55 36.1044 184.49 39.017C184.429 40.1699 184.975 40.7767 185.886 41.2014C186.189 41.3228 186.432 41.4442 186.736 41.5655C188.132 41.9903 189.225 41.4442 189.589 40.0485C189.771 39.381 189.892 38.6529 189.892 37.9247C189.953 32.767 189.953 27.6699 189.892 22.5121C189.892 21.8446 189.771 21.1772 189.589 20.5097C189.285 19.5388 188.739 19.1747 187.707 19.1141C186.736 19.0534 185.947 19.4781 185.157 20.0243C184.672 20.3276 184.49 20.7524 184.55 21.2985C184.611 24.2718 184.55 27.2451 184.55 30.2791Z" fill="black"/>
<path d="M167.613 43.3252C166.824 44.0534 166.156 44.7208 165.488 45.3276C164.335 46.2985 163.121 47.0267 161.542 47.148C159.053 47.2694 157.414 45.9344 156.928 43.2645C156.746 42.1723 156.625 41.0194 156.625 39.8665C156.625 31.5534 156.625 23.2403 156.625 14.9878C156.625 14.3204 156.746 14.0776 157.475 14.0776C158.992 14.1383 160.51 14.1383 162.028 14.0776C162.696 14.0776 162.878 14.2597 162.878 14.9272C162.878 22.9369 162.878 31.0073 162.878 39.017C162.878 39.4417 162.878 39.8665 162.878 40.2912C162.938 41.3228 163.546 41.7475 164.517 41.5655C165.852 41.2621 167.552 39.199 167.552 37.8641C167.552 30.2184 167.552 22.6335 167.552 14.9878C167.552 14.0776 167.552 14.017 168.524 14.017C170.041 14.017 171.559 14.017 173.077 14.017C173.623 14.017 173.866 14.1383 173.866 14.7451C173.866 25.1213 173.805 35.5582 173.805 45.9344C173.805 46.4199 173.684 46.6626 173.137 46.6626C171.498 46.6019 169.859 46.6626 168.22 46.6626C167.674 46.6626 167.552 46.4806 167.552 45.9951C167.613 45.2063 167.613 44.3568 167.613 43.3252Z" fill="black"/>
<path d="M211.686 35.1941C213.75 35.1941 215.632 35.1941 217.514 35.1941C217.636 35.1941 217.939 35.4369 217.939 35.5582C217.939 37.9854 218.061 40.4126 216.847 42.6577C215.329 45.449 212.961 46.9053 209.805 47.0873C205.737 47.2694 202.702 45.5704 201.123 42.233C200.395 40.6553 200.031 38.9563 200.031 37.2572C200.031 32.4636 200.031 27.6699 200.152 22.8762C200.273 19.9636 201.245 17.3543 203.612 15.4126C207.619 12.1359 215.936 12.864 217.575 20.3883C217.879 21.6626 217.939 22.9369 218 24.2718C218.061 26.3349 218 28.398 218 30.5218C218 31.4927 218 31.4927 217.089 31.4927C213.811 31.4927 210.594 31.4927 207.316 31.4927C207.012 31.4927 206.769 31.4927 206.466 31.4927C206.405 31.614 206.344 31.6747 206.344 31.7354C206.344 34.1626 206.344 36.5291 206.405 38.9563C206.405 39.381 206.587 39.8665 206.769 40.2912C207.194 41.3835 208.044 41.8082 209.258 41.7475C210.351 41.6869 211.201 41.1407 211.444 40.0485C211.686 39.199 211.686 38.2281 211.686 37.3179C211.686 36.5898 211.686 35.983 211.686 35.1941ZM211.808 26.3956C211.747 24.5145 211.747 22.6335 211.504 20.8737C211.383 19.5388 210.533 19.0534 209.076 19.0534C207.498 19.0534 206.708 19.5388 206.526 20.9344C206.344 22.5728 206.344 24.2718 206.344 25.9708C206.344 26.0922 206.587 26.3956 206.708 26.3956C208.348 26.3956 209.987 26.3956 211.808 26.3956Z" fill="black"/>
<path d="M143.998 9.40528C142.48 9.40528 140.962 9.40528 139.505 9.40528C138.777 9.40528 137.866 9.58732 137.441 9.22325C137.077 8.91985 137.32 7.88829 137.259 7.22082C137.259 6.12858 137.259 4.97567 137.259 3.88344C137.259 3.27664 137.441 3.15528 137.988 3.15528C142.966 3.15528 147.883 3.15528 152.861 3.0946C154.257 3.0946 155.654 3.0946 157.05 3.0946C157.596 3.0946 157.718 3.27664 157.718 3.82276C157.718 5.46111 157.718 7.03878 157.718 8.67713C157.718 9.22325 157.535 9.40528 156.989 9.40528C155.289 9.40528 153.59 9.40528 151.829 9.40528C151.465 9.40528 151.04 9.40528 150.615 9.40528C150.615 9.9514 150.615 10.3762 150.615 10.8616C150.615 22.4514 150.615 34.1019 150.615 45.6917C150.615 46.7839 150.615 46.7839 149.522 46.7839C148.004 46.7839 146.547 46.7839 145.03 46.7839C144.058 46.7839 144.058 46.7839 144.058 45.7524C144.058 39.2597 144.058 32.7669 144.058 26.2742C144.058 20.9344 144.058 15.5946 144.058 10.2548C143.998 9.9514 143.998 9.70868 143.998 9.40528Z" fill="black"/>
</g>
<defs>
<clipPath id="clip0">
<rect width="218" height="50" fill="white"/>
</clipPath>
</defs>
</svg>
