<?xml version="1.0" encoding="utf-8"?>
<!-- Generator: Adobe Illustrator 24.0.3, SVG Export Plug-In . SVG Version: 6.00 Build 0)  -->
<svg version="1.1" id="Capa_1" xmlns="http://www.w3.org/2000/svg" xmlns:xlink="http://www.w3.org/1999/xlink" x="0px" y="0px"
	 viewBox="0 0 100 100" style="enable-background:new 0 0 100 100;" xml:space="preserve">
<style type="text/css">
	.st0{fill:#19B2B1;}
</style>
<path class="st0" d="M7.9,57.1c0-9-0.1-18,0-27c0.3-17.5,9-26,26.6-26c11.8,0,23.5-0.1,35.3,0c14.3,0.1,23.2,9,23.4,23.3
	c0.1,5.7,0.1,11.4,0,17.2C93,61.2,83.1,71,66.6,71c-10.8,0-21.6,0.2-32.4-0.1c-4.2-0.1-7,1.4-8.7,5c-2.5,5.1-4.4,10.6-7.1,15.6
	c-1,2-3.3,4.3-5.3,4.5c-1.4,0.1-3.7-2.8-4.5-4.8c-1-2.5-1-5.4-1-8.2c-0.1-8.7,0-17.3,0-26C7.7,57.1,7.8,57.1,7.9,57.1 M18.8,64.4
	c0.4,0.3,0.7,0.5,1.1,0.8c6.3-7.1,14.5-6.3,22.5-6.2c7.4,0.1,14.7,0.1,22.1,0c3.1-0.1,6.2-0.5,9.2-1.3c4.5-1.3,7.3-4.5,7.5-9.3
	c0.2-7.2,0.3-14.4-0.1-21.6c-0.3-6.3-4.2-10.3-10.3-10.5c-13.2-0.3-26.5-0.4-39.7,0.1c-7.7,0.3-11.5,5.1-11.6,13
	c-0.2,7.7-0.5,15.4-0.6,23C18.7,56.4,18.8,60.4,18.8,64.4"/>
</svg>
