<svg width="32" height="44" viewBox="0 0 32 44" fill="none" xmlns="http://www.w3.org/2000/svg">
<path d="M31.5 44H1.73438V37.5547L15.4453 23.1406C18.8242 19.293 20.5137 16.2363 20.5137 13.9707C20.5137 12.1348 20.1133 10.7383 19.3125 9.78125C18.5117 8.82422 17.3496 8.3457 15.8262 8.3457C14.3223 8.3457 13.1016 8.99023 12.1641 10.2793C11.2266 11.5488 10.7578 13.1406 10.7578 15.0547H0.855469C0.855469 12.4375 1.50977 10.0254 2.81836 7.81836C4.12695 5.5918 5.94336 3.85352 8.26758 2.60352C10.5918 1.35352 13.1895 0.728516 16.0605 0.728516C20.6699 0.728516 24.2148 1.79297 26.6953 3.92188C29.1953 6.05078 30.4453 9.10742 30.4453 13.0918C30.4453 14.7715 30.1328 16.4121 29.5078 18.0137C28.8828 19.5957 27.9062 21.2656 26.5781 23.0234C25.2695 24.7617 23.1504 27.0957 20.2207 30.0254L14.7129 36.3828H31.5V44Z" fill="#8FDC52"/>
</svg>
