<svg width="32" height="45" viewBox="0 0 32 45" fill="none" xmlns="http://www.w3.org/2000/svg">
<path d="M10.7578 18.541H15.416C19.1074 18.541 20.9531 16.7344 20.9531 13.1211C20.9531 11.7148 20.5137 10.5723 19.6348 9.69336C18.7559 8.79492 17.5156 8.3457 15.9141 8.3457C14.6055 8.3457 13.4629 8.72656 12.4863 9.48828C11.5293 10.25 11.0508 11.1973 11.0508 12.3301H1.17773C1.17773 10.084 1.80273 8.08203 3.05273 6.32422C4.30273 4.56641 6.03125 3.19922 8.23828 2.22266C10.4648 1.22656 12.9062 0.728516 15.5625 0.728516C20.3086 0.728516 24.0391 1.8125 26.7539 3.98047C29.4688 6.14844 30.8262 9.12695 30.8262 12.916C30.8262 14.752 30.2598 16.4902 29.127 18.1309C28.0137 19.752 26.3828 21.0703 24.2344 22.0859C26.5 22.9062 28.2773 24.1562 29.5664 25.8359C30.8555 27.4961 31.5 29.5566 31.5 32.0176C31.5 35.8262 30.0352 38.873 27.1055 41.1582C24.1758 43.4434 20.3281 44.5859 15.5625 44.5859C12.7695 44.5859 10.1719 44.0586 7.76953 43.0039C5.38672 41.9297 3.58008 40.4551 2.34961 38.5801C1.11914 36.6855 0.503906 34.5371 0.503906 32.1348H10.4355C10.4355 33.4434 10.9629 34.5762 12.0176 35.5332C13.0723 36.4902 14.3711 36.9688 15.9141 36.9688C17.6523 36.9688 19.0391 36.4902 20.0742 35.5332C21.1094 34.5566 21.627 33.3164 21.627 31.8125C21.627 29.6641 21.0898 28.1406 20.0156 27.2422C18.9414 26.3438 17.457 25.8945 15.5625 25.8945H10.7578V18.541Z" fill="#8FDC52"/>
</svg>
