<svg width="31" height="44" viewBox="0 0 31 44" fill="none" xmlns="http://www.w3.org/2000/svg">
<path d="M1.32031 22.1406L3.92773 0.34375H28.8594V8.01953H11.9551L10.9883 16.4863C11.6914 16.0762 12.6094 15.7148 13.7422 15.4023C14.8945 15.0898 16.0176 14.9336 17.1113 14.9336C21.3496 14.9336 24.6016 16.1934 26.8672 18.7129C29.1523 21.2129 30.2949 24.7285 30.2949 29.2598C30.2949 31.9941 29.6797 34.4746 28.4492 36.7012C27.2383 38.9082 25.5293 40.6074 23.3223 41.7988C21.1152 42.9902 18.5078 43.5859 15.5 43.5859C12.8242 43.5859 10.3145 43.0391 7.9707 41.9453C5.62695 40.832 3.79102 39.3184 2.46289 37.4043C1.13477 35.4707 0.480469 33.293 0.5 30.8711H10.4023C10.5 32.4336 10.998 33.6738 11.8965 34.5918C12.7949 35.5098 13.9766 35.9688 15.4414 35.9688C18.7617 35.9688 20.4219 33.5078 20.4219 28.5859C20.4219 24.0352 18.3906 21.7598 14.3281 21.7598C12.0234 21.7598 10.3047 22.502 9.17188 23.9863L1.32031 22.1406Z" fill="#8FDC52"/>
</svg>
