<svg width="32" height="45" viewBox="0 0 32 45" fill="none" xmlns="http://www.w3.org/2000/svg">
<path d="M24.582 0.728516V8.49219H24.1426C20.4512 8.49219 17.4141 9.38086 15.0312 11.1582C12.668 12.916 11.2129 15.3672 10.666 18.5117C12.8926 16.3242 15.7051 15.2305 19.1035 15.2305C22.7949 15.2305 25.7344 16.5781 27.9219 19.2734C30.1094 21.9688 31.2031 25.5039 31.2031 29.8789C31.2031 32.5938 30.5586 35.084 29.2695 37.3496C28 39.6152 26.2129 41.3926 23.9082 42.6816C21.623 43.9512 19.084 44.5859 16.291 44.5859C13.2637 44.5859 10.5586 43.9023 8.17578 42.5352C5.79297 41.1484 3.9375 39.1758 2.60938 36.6172C1.28125 34.0586 0.597656 31.1094 0.558594 27.7695V23.8145C0.558594 19.4199 1.49609 15.4746 3.37109 11.9785C5.26562 8.46289 7.96094 5.70898 11.457 3.7168C14.9531 1.72461 18.8301 0.728516 23.0879 0.728516H24.582ZM15.6758 22.7891C14.3672 22.7891 13.2734 23.0918 12.3945 23.6973C11.5156 24.3027 10.8613 25.0449 10.4316 25.9238V28.8828C10.4316 34.2734 12.2969 36.9688 16.0273 36.9688C17.5312 36.9688 18.7812 36.2949 19.7773 34.9473C20.793 33.5996 21.3008 31.9102 21.3008 29.8789C21.3008 27.7891 20.7832 26.0898 19.748 24.7812C18.7324 23.4531 17.375 22.7891 15.6758 22.7891Z" fill="#8FDC52"/>
</svg>
